# Blender 3.4.1
# www.blender.org
mtllib heaven.mtl
o Text.002
v 0.583984 -0.899674 0.083322
v 0.517019 -1.466464 0.083322
v 0.489222 -1.466464 0.083322
v 0.568822 -0.795398 0.083322
v 0.626942 -0.795398 0.083322
v 0.743815 -1.252867 0.083322
v 0.798145 -0.795398 0.083322
v 0.825942 -0.795398 0.083322
v 0.746342 -1.467305 0.083322
v 0.737497 -1.467305 0.083322
v 0.281378 -0.795398 0.083322
v 0.534076 -0.795398 0.083322
v 0.531549 -0.818944 0.083322
v 0.344553 -0.818944 0.083322
v 0.308543 -1.118317 0.083322
v 0.416571 -1.118317 0.083322
v 0.414044 -1.142704 0.083322
v 0.306016 -1.142704 0.083322
v 0.270007 -1.443759 0.083322
v 0.457003 -1.443759 0.083322
v 0.454476 -1.467305 0.083322
v 0.201778 -1.467305 0.083322
v -0.003538 -0.795398 0.083322
v 0.061531 -0.795398 0.083322
v 0.074166 -1.384893 0.083322
v 0.228943 -0.795398 0.083322
v 0.254213 -0.795398 0.083322
v 0.078588 -1.467305 0.083322
v 0.012887 -1.467305 0.083322
v -0.162106 -1.315096 0.083322
v -0.286560 -1.315096 0.083322
v -0.325728 -1.467305 0.083322
v -0.349734 -1.467305 0.083322
v -0.175373 -0.795398 0.083322
v -0.109672 -0.795398 0.083322
v -0.092614 -1.467305 0.083322
v -0.158948 -1.467305 0.083322
v -0.280242 -1.290709 0.083322
v -0.162106 -1.290709 0.083322
v -0.170319 -0.871082 0.083322
v -0.539889 -0.795398 0.083322
v -0.287192 -0.795398 0.083322
v -0.289719 -0.818944 0.083322
v -0.476715 -0.818944 0.083322
v -0.512724 -1.118317 0.083322
v -0.404696 -1.118317 0.083322
v -0.407223 -1.142704 0.083322
v -0.515251 -1.142704 0.083322
v -0.551261 -1.443759 0.083322
v -0.364264 -1.443759 0.083322
v -0.366791 -1.467305 0.083322
v -0.619489 -1.467305 0.083322
v -0.691508 -1.132613 0.083322
v -0.843758 -1.132613 0.083322
v -0.883558 -1.467305 0.083322
v -0.949260 -1.467305 0.083322
v -0.869660 -0.795398 0.083322
v -0.803958 -0.795398 0.083322
v -0.841231 -1.109067 0.083322
v -0.688981 -1.109067 0.083322
v -0.651708 -0.795398 0.083322
v -0.585375 -0.795398 0.083322
v -0.664975 -1.467305 0.083322
v -0.731308 -1.467305 0.083322
v 0.583984 -0.899674 -0.076678
v 0.517019 -1.466464 -0.076678
v 0.489222 -1.466464 -0.076678
v 0.568822 -0.795398 -0.076678
v 0.626942 -0.795398 -0.076678
v 0.743815 -1.252867 -0.076678
v 0.798145 -0.795398 -0.076678
v 0.825942 -0.795398 -0.076678
v 0.746342 -1.467305 -0.076678
v 0.737497 -1.467305 -0.076678
v 0.281378 -0.795398 -0.076678
v 0.534076 -0.795398 -0.076678
v 0.531549 -0.818944 -0.076678
v 0.344553 -0.818944 -0.076678
v 0.308543 -1.118317 -0.076678
v 0.416571 -1.118317 -0.076678
v 0.414044 -1.142704 -0.076678
v 0.306016 -1.142704 -0.076678
v 0.270007 -1.443759 -0.076678
v 0.457003 -1.443759 -0.076678
v 0.454476 -1.467305 -0.076678
v 0.201778 -1.467305 -0.076678
v -0.003538 -0.795398 -0.076678
v 0.061531 -0.795398 -0.076678
v 0.074166 -1.384893 -0.076678
v 0.228943 -0.795398 -0.076678
v 0.254213 -0.795398 -0.076678
v 0.078588 -1.467305 -0.076678
v 0.012887 -1.467305 -0.076678
v -0.162106 -1.315096 -0.076678
v -0.286560 -1.315096 -0.076678
v -0.325728 -1.467305 -0.076678
v -0.349734 -1.467305 -0.076678
v -0.175373 -0.795398 -0.076678
v -0.109672 -0.795398 -0.076678
v -0.092614 -1.467305 -0.076678
v -0.158948 -1.467305 -0.076678
v -0.280242 -1.290709 -0.076678
v -0.162106 -1.290709 -0.076678
v -0.170319 -0.871082 -0.076678
v -0.539889 -0.795398 -0.076678
v -0.287192 -0.795398 -0.076678
v -0.289719 -0.818944 -0.076678
v -0.476715 -0.818944 -0.076678
v -0.512724 -1.118317 -0.076678
v -0.404696 -1.118317 -0.076678
v -0.407223 -1.142704 -0.076678
v -0.515251 -1.142704 -0.076678
v -0.551261 -1.443759 -0.076678
v -0.364264 -1.443759 -0.076678
v -0.366791 -1.467305 -0.076678
v -0.619489 -1.467305 -0.076678
v -0.691508 -1.132613 -0.076678
v -0.843758 -1.132613 -0.076678
v -0.883558 -1.467305 -0.076678
v -0.949260 -1.467305 -0.076678
v -0.869660 -0.795398 -0.076678
v -0.803958 -0.795398 -0.076678
v -0.841231 -1.109067 -0.076678
v -0.688981 -1.109067 -0.076678
v -0.651708 -0.795398 -0.076678
v -0.585375 -0.795398 -0.076678
v -0.664975 -1.467305 -0.076678
v -0.731308 -1.467305 -0.076678
v -0.691508 -1.132613 -0.076678
v -0.691508 -1.132613 0.083322
v -0.843758 -1.132613 -0.076678
v -0.843758 -1.132613 0.083322
v -0.883558 -1.467305 -0.076678
v -0.883558 -1.467305 0.083322
v -0.949260 -1.467305 -0.076678
v -0.949260 -1.467305 0.083322
v -0.869660 -0.795398 -0.076678
v -0.869660 -0.795398 0.083322
v -0.803958 -0.795398 -0.076678
v -0.803958 -0.795398 0.083322
v -0.841231 -1.109067 -0.076678
v -0.841231 -1.109067 0.083322
v -0.688981 -1.109067 -0.076678
v -0.688981 -1.109067 0.083322
v -0.651708 -0.795398 -0.076678
v -0.651708 -0.795398 0.083322
v -0.585375 -0.795398 -0.076678
v -0.585375 -0.795398 0.083322
v -0.664975 -1.467305 -0.076678
v -0.664975 -1.467305 0.083322
v -0.731308 -1.467305 -0.076678
v -0.731308 -1.467305 0.083322
v -0.539889 -0.795398 -0.076678
v -0.539889 -0.795398 0.083322
v -0.287192 -0.795398 -0.076678
v -0.287192 -0.795398 0.083322
v -0.289719 -0.818944 -0.076678
v -0.289719 -0.818944 0.083322
v -0.476715 -0.818944 -0.076678
v -0.476715 -0.818944 0.083322
v -0.512724 -1.118317 -0.076678
v -0.512724 -1.118317 0.083322
v -0.404696 -1.118317 -0.076678
v -0.404696 -1.118317 0.083322
v -0.407223 -1.142704 -0.076678
v -0.407223 -1.142704 0.083322
v -0.515251 -1.142704 -0.076678
v -0.515251 -1.142704 0.083322
v -0.551261 -1.443759 -0.076678
v -0.551261 -1.443759 0.083322
v -0.364264 -1.443759 -0.076678
v -0.364264 -1.443759 0.083322
v -0.366791 -1.467305 -0.076678
v -0.366791 -1.467305 0.083322
v -0.619489 -1.467305 -0.076678
v -0.619489 -1.467305 0.083322
v -0.162106 -1.315096 -0.076678
v -0.162106 -1.315096 0.083322
v -0.286560 -1.315096 -0.076678
v -0.286560 -1.315096 0.083322
v -0.325728 -1.467305 -0.076678
v -0.325728 -1.467305 0.083322
v -0.349734 -1.467305 -0.076678
v -0.349734 -1.467305 0.083322
v -0.175373 -0.795398 -0.076678
v -0.175373 -0.795398 0.083322
v -0.109672 -0.795398 -0.076678
v -0.109672 -0.795398 0.083322
v -0.092614 -1.467305 -0.076678
v -0.092614 -1.467305 0.083322
v -0.158948 -1.467305 -0.076678
v -0.158948 -1.467305 0.083322
v -0.280242 -1.290709 -0.076678
v -0.280242 -1.290709 0.083322
v -0.162106 -1.290709 -0.076678
v -0.162106 -1.290709 0.083322
v -0.170319 -0.871082 -0.076678
v -0.170319 -0.871082 0.083322
v -0.003538 -0.795398 -0.076678
v -0.003538 -0.795398 0.083322
v 0.061531 -0.795398 -0.076678
v 0.061531 -0.795398 0.083322
v 0.074166 -1.384893 -0.076678
v 0.074166 -1.384893 0.083322
v 0.228943 -0.795398 -0.076678
v 0.228943 -0.795398 0.083322
v 0.254213 -0.795398 -0.076678
v 0.254213 -0.795398 0.083322
v 0.078588 -1.467305 -0.076678
v 0.078588 -1.467305 0.083322
v 0.012887 -1.467305 -0.076678
v 0.012887 -1.467305 0.083322
v 0.281378 -0.795398 -0.076678
v 0.281378 -0.795398 0.083322
v 0.534076 -0.795398 -0.076678
v 0.534076 -0.795398 0.083322
v 0.531549 -0.818944 -0.076678
v 0.531549 -0.818944 0.083322
v 0.344553 -0.818944 -0.076678
v 0.344553 -0.818944 0.083322
v 0.308543 -1.118317 -0.076678
v 0.308543 -1.118317 0.083322
v 0.416571 -1.118317 -0.076678
v 0.416571 -1.118317 0.083322
v 0.414044 -1.142704 -0.076678
v 0.414044 -1.142704 0.083322
v 0.306016 -1.142704 -0.076678
v 0.306016 -1.142704 0.083322
v 0.270007 -1.443759 -0.076678
v 0.270007 -1.443759 0.083322
v 0.457003 -1.443759 -0.076678
v 0.457003 -1.443759 0.083322
v 0.454476 -1.467305 -0.076678
v 0.454476 -1.467305 0.083322
v 0.201778 -1.467305 -0.076678
v 0.201778 -1.467305 0.083322
v 0.583984 -0.899674 -0.076678
v 0.583984 -0.899674 0.083322
v 0.517019 -1.466464 -0.076678
v 0.517019 -1.466464 0.083322
v 0.489222 -1.466464 -0.076678
v 0.489222 -1.466464 0.083322
v 0.568822 -0.795398 -0.076678
v 0.568822 -0.795398 0.083322
v 0.626942 -0.795398 -0.076678
v 0.626942 -0.795398 0.083322
v 0.743815 -1.252867 -0.076678
v 0.743815 -1.252867 0.083322
v 0.798145 -0.795398 -0.076678
v 0.798145 -0.795398 0.083322
v 0.825942 -0.795398 -0.076678
v 0.825942 -0.795398 0.083322
v 0.746342 -1.467305 -0.076678
v 0.746342 -1.467305 0.083322
v 0.737497 -1.467305 -0.076678
v 0.737497 -1.467305 0.083322
vn -0.0000 -0.0000 1.0000
vn -0.0000 -0.0000 -1.0000
vn -0.8416 -0.5401 -0.0000
vn 0.7509 -0.6604 -0.0000
vn -0.8415 -0.5403 -0.0000
vn -0.7511 0.6602 -0.0000
vn 0.8416 0.5401 -0.0000
vn -0.7509 0.6604 -0.0000
vn 0.8415 0.5403 -0.0000
vn 0.7511 -0.6602 -0.0000
vn 0.8379 0.5459 -0.0000
vn 0.7559 -0.6547 -0.0000
vn 0.7503 -0.6611 -0.0000
vn 0.8421 0.5394 -0.0000
vn 0.8366 0.5478 -0.0000
vn 0.7574 -0.6529 -0.0000
vn 0.7506 -0.6608 -0.0000
vn 0.8419 0.5397 -0.0000
vn -0.7915 -0.6112 -0.0000
vn 0.6892 -0.7246 -0.0000
vn -0.8816 -0.4719 -0.0000
vn -0.6882 0.7255 -0.0000
vn 0.7896 0.6136 -0.0000
vn 0.8091 -0.5876 -0.0000
vn 0.8822 0.4708 -0.0000
vn -0.8069 0.5906 -0.0000
vn -0.2033 -0.9791 -0.0000
vn -0.8088 0.5881 -0.0000
vn 0.7912 0.6116 -0.0000
vn 0.2022 0.9794 -0.0000
vn -0.6868 0.7269 -0.0000
vn 0.8821 0.4711 -0.0000
vn 0.6873 -0.7264 -0.0000
vn -0.7900 -0.6131 -0.0000
vn 0.1255 -0.9921 -0.0000
vn 0.7512 -0.6600 -0.0000
vn -0.8415 -0.5402 -0.0000
vn -0.7510 0.6603 -0.0000
vn 0.6900 0.7238 -0.0000
vn -0.1134 0.9936 -0.0000
vn -0.6832 -0.7302 -0.0000
vt 0.000000 0.000000
vt 0.111111 0.000000
vt 0.222222 0.000000
vt 0.333333 0.000000
vt 0.444444 0.000000
vt 0.555556 0.000000
vt 0.666667 0.000000
vt 0.777778 0.000000
vt 0.888889 0.000000
vt 1.000000 0.000000
vt 0.000000 0.000000
vt 0.090909 0.000000
vt 0.181818 0.000000
vt 0.272727 0.000000
vt 0.363636 0.000000
vt 0.454545 0.000000
vt 0.545455 0.000000
vt 0.636364 0.000000
vt 0.727273 0.000000
vt 0.818182 0.000000
vt 0.909091 0.000000
vt 1.000000 0.000000
vt 0.000000 0.000000
vt 0.166667 0.000000
vt 0.333333 0.000000
vt 0.500000 0.000000
vt 0.666667 0.000000
vt 0.833333 0.000000
vt 1.000000 0.000000
vt 0.000000 0.000000
vt 0.100000 0.000000
vt 0.200000 0.000000
vt 0.300000 0.000000
vt 0.400000 0.000000
vt 0.500000 0.000000
vt 0.600000 0.000000
vt 0.700000 0.000000
vt 0.800000 0.000000
vt 0.900000 0.000000
vt 1.000000 0.000000
vt 0.000000 0.000000
vt 0.090909 0.000000
vt 0.181818 0.000000
vt 0.272727 0.000000
vt 0.363636 0.000000
vt 0.454545 0.000000
vt 0.545455 0.000000
vt 0.636364 0.000000
vt 0.727273 0.000000
vt 0.818182 0.000000
vt 0.909091 0.000000
vt 1.000000 0.000000
vt 0.000000 0.000000
vt 0.090909 0.000000
vt 0.181818 0.000000
vt 0.272727 0.000000
vt 0.363636 0.000000
vt 0.454545 0.000000
vt 0.545455 0.000000
vt 0.636364 0.000000
vt 0.727273 0.000000
vt 0.818182 0.000000
vt 0.909091 0.000000
vt 1.000000 0.000000
vt 0.000000 0.000000
vt 0.111111 0.000000
vt 0.222222 0.000000
vt 0.333333 0.000000
vt 0.444444 0.000000
vt 0.555556 0.000000
vt 0.666667 0.000000
vt 0.777778 0.000000
vt 0.888889 0.000000
vt 1.000000 0.000000
vt 0.000000 0.000000
vt 0.090909 0.000000
vt 0.181818 0.000000
vt 0.272727 0.000000
vt 0.363636 0.000000
vt 0.454545 0.000000
vt 0.545455 0.000000
vt 0.636364 0.000000
vt 0.727273 0.000000
vt 0.818182 0.000000
vt 0.909091 0.000000
vt 1.000000 0.000000
vt 0.000000 0.000000
vt 0.166667 0.000000
vt 0.333333 0.000000
vt 0.500000 0.000000
vt 0.666667 0.000000
vt 0.833333 0.000000
vt 1.000000 0.000000
vt 0.000000 0.000000
vt 0.100000 0.000000
vt 0.200000 0.000000
vt 0.300000 0.000000
vt 0.400000 0.000000
vt 0.500000 0.000000
vt 0.600000 0.000000
vt 0.700000 0.000000
vt 0.800000 0.000000
vt 0.900000 0.000000
vt 1.000000 0.000000
vt 0.000000 0.000000
vt 0.090909 0.000000
vt 0.181818 0.000000
vt 0.272727 0.000000
vt 0.363636 0.000000
vt 0.454545 0.000000
vt 0.545455 0.000000
vt 0.636364 0.000000
vt 0.727273 0.000000
vt 0.818182 0.000000
vt 0.909091 0.000000
vt 1.000000 0.000000
vt 0.000000 0.000000
vt 0.090909 0.000000
vt 0.181818 0.000000
vt 0.272727 0.000000
vt 0.363636 0.000000
vt 0.454545 0.000000
vt 0.545455 0.000000
vt 0.636364 0.000000
vt 0.727273 0.000000
vt 0.818182 0.000000
vt 0.909091 0.000000
vt 1.000000 0.000000
vt 0.000000 0.000000
vt 1.000000 0.000000
vt 0.000000 1.000000
vt 1.000000 1.000000
vt 0.083333 0.000000
vt 0.083333 1.000000
vt 0.166667 0.000000
vt 0.166667 1.000000
vt 0.250000 0.000000
vt 0.250000 1.000000
vt 0.333333 0.000000
vt 0.333333 1.000000
vt 0.416667 0.000000
vt 0.416667 1.000000
vt 0.500000 0.000000
vt 0.500000 1.000000
vt 0.583333 0.000000
vt 0.583333 1.000000
vt 0.666667 0.000000
vt 0.666667 1.000000
vt 0.750000 0.000000
vt 0.750000 1.000000
vt 0.833333 0.000000
vt 0.833333 1.000000
vt 0.916667 0.000000
vt 0.916667 1.000000
vt 0.000000 0.000000
vt 1.000000 0.000000
vt 0.000000 1.000000
vt 1.000000 1.000000
vt 0.083333 0.000000
vt 0.083333 1.000000
vt 0.166667 0.000000
vt 0.166667 1.000000
vt 0.250000 0.000000
vt 0.250000 1.000000
vt 0.333333 0.000000
vt 0.333333 1.000000
vt 0.416667 0.000000
vt 0.416667 1.000000
vt 0.500000 0.000000
vt 0.500000 1.000000
vt 0.583333 0.000000
vt 0.583333 1.000000
vt 0.666667 0.000000
vt 0.666667 1.000000
vt 0.750000 0.000000
vt 0.750000 1.000000
vt 0.833333 0.000000
vt 0.833333 1.000000
vt 0.916667 0.000000
vt 0.916667 1.000000
vt 0.000000 0.000000
vt 1.000000 0.000000
vt 0.000000 1.000000
vt 1.000000 1.000000
vt 0.125000 0.000000
vt 0.125000 1.000000
vt 0.250000 0.000000
vt 0.250000 1.000000
vt 0.375000 0.000000
vt 0.375000 1.000000
vt 0.500000 0.000000
vt 0.500000 1.000000
vt 0.625000 0.000000
vt 0.625000 1.000000
vt 0.750000 0.000000
vt 0.750000 1.000000
vt 0.875000 0.000000
vt 0.875000 1.000000
vt 0.000000 0.000000
vt 1.000000 0.000000
vt 0.000000 1.000000
vt 1.000000 1.000000
vt 0.333333 0.000000
vt 0.333333 1.000000
vt 0.666667 0.000000
vt 0.666667 1.000000
vt 0.000000 0.000000
vt 1.000000 0.000000
vt 0.000000 1.000000
vt 1.000000 1.000000
vt 0.142857 0.000000
vt 0.142857 1.000000
vt 0.285714 0.000000
vt 0.285714 1.000000
vt 0.428571 0.000000
vt 0.428571 1.000000
vt 0.571429 0.000000
vt 0.571429 1.000000
vt 0.714286 0.000000
vt 0.714286 1.000000
vt 0.857143 0.000000
vt 0.857143 1.000000
vt 0.000000 0.000000
vt 1.000000 0.000000
vt 0.000000 1.000000
vt 1.000000 1.000000
vt 0.083333 0.000000
vt 0.083333 1.000000
vt 0.166667 0.000000
vt 0.166667 1.000000
vt 0.250000 0.000000
vt 0.250000 1.000000
vt 0.333333 0.000000
vt 0.333333 1.000000
vt 0.416667 0.000000
vt 0.416667 1.000000
vt 0.500000 0.000000
vt 0.500000 1.000000
vt 0.583333 0.000000
vt 0.583333 1.000000
vt 0.666667 0.000000
vt 0.666667 1.000000
vt 0.750000 0.000000
vt 0.750000 1.000000
vt 0.833333 0.000000
vt 0.833333 1.000000
vt 0.916667 0.000000
vt 0.916667 1.000000
vt 0.000000 0.000000
vt 1.000000 0.000000
vt 0.000000 1.000000
vt 1.000000 1.000000
vt 0.100000 0.000000
vt 0.100000 1.000000
vt 0.200000 0.000000
vt 0.200000 1.000000
vt 0.300000 0.000000
vt 0.300000 1.000000
vt 0.400000 0.000000
vt 0.400000 1.000000
vt 0.500000 0.000000
vt 0.500000 1.000000
vt 0.600000 0.000000
vt 0.600000 1.000000
vt 0.700000 0.000000
vt 0.700000 1.000000
vt 0.800000 0.000000
vt 0.800000 1.000000
vt 0.900000 0.000000
vt 0.900000 1.000000
s 0
f 3/3/1 1/1/1 4/4/1
f 1/1/1 5/5/1 4/4/1
f 1/1/1 6/6/1 5/5/1
f 6/6/1 8/8/1 7/7/1
f 6/6/1 9/9/1 8/8/1
f 3/3/1 2/2/1 1/1/1
f 10/10/1 6/6/1 1/1/1
f 10/10/1 9/9/1 6/6/1
f 22/22/1 14/14/1 11/11/1
f 14/14/1 12/12/1 11/11/1
f 14/14/1 13/13/1 12/12/1
f 22/22/1 15/15/1 14/14/1
f 22/22/1 18/18/1 15/15/1
f 18/18/1 16/16/1 15/15/1
f 18/18/1 17/17/1 16/16/1
f 22/22/1 19/19/1 18/18/1
f 22/22/1 20/20/1 19/19/1
f 22/22/1 21/21/1 20/20/1
f 29/29/1 24/24/1 23/23/1
f 29/29/1 25/25/1 24/24/1
f 25/25/1 27/27/1 26/26/1
f 25/25/1 28/28/1 27/27/1
f 29/29/1 28/28/1 25/25/1
f 33/33/1 40/40/1 34/34/1
f 40/40/1 35/35/1 34/34/1
f 40/40/1 36/36/1 35/35/1
f 33/33/1 38/38/1 40/40/1
f 39/39/1 36/36/1 40/40/1
f 33/33/1 31/31/1 38/38/1
f 31/31/1 39/39/1 38/38/1
f 31/31/1 30/30/1 39/39/1
f 30/30/1 36/36/1 39/39/1
f 33/33/1 32/32/1 31/31/1
f 37/37/1 36/36/1 30/30/1
f 52/52/1 44/44/1 41/41/1
f 44/44/1 42/42/1 41/41/1
f 44/44/1 43/43/1 42/42/1
f 52/52/1 45/45/1 44/44/1
f 52/52/1 48/48/1 45/45/1
f 48/48/1 46/46/1 45/45/1
f 48/48/1 47/47/1 46/46/1
f 52/52/1 49/49/1 48/48/1
f 52/52/1 50/50/1 49/49/1
f 52/52/1 51/51/1 50/50/1
f 56/56/1 58/58/1 57/57/1
f 56/56/1 59/59/1 58/58/1
f 60/60/1 62/62/1 61/61/1
f 60/60/1 63/63/1 62/62/1
f 56/56/1 54/54/1 59/59/1
f 54/54/1 60/60/1 59/59/1
f 54/54/1 53/53/1 60/60/1
f 53/53/1 63/63/1 60/60/1
f 56/56/1 55/55/1 54/54/1
f 64/64/1 63/63/1 53/53/1
f 67/67/2 68/68/2 65/65/2
f 65/65/2 68/68/2 69/69/2
f 65/65/2 69/69/2 70/70/2
f 70/70/2 71/71/2 72/72/2
f 70/70/2 72/72/2 73/73/2
f 67/67/2 65/65/2 66/66/2
f 74/74/2 65/65/2 70/70/2
f 74/74/2 70/70/2 73/73/2
f 86/86/2 75/75/2 78/78/2
f 78/78/2 75/75/2 76/76/2
f 78/78/2 76/76/2 77/77/2
f 86/86/2 78/78/2 79/79/2
f 86/86/2 79/79/2 82/82/2
f 82/82/2 79/79/2 80/80/2
f 82/82/2 80/80/2 81/81/2
f 86/86/2 82/82/2 83/83/2
f 86/86/2 83/83/2 84/84/2
f 86/86/2 84/84/2 85/85/2
f 93/93/2 87/87/2 88/88/2
f 93/93/2 88/88/2 89/89/2
f 89/89/2 90/90/2 91/91/2
f 89/89/2 91/91/2 92/92/2
f 93/93/2 89/89/2 92/92/2
f 97/97/2 98/98/2 104/104/2
f 104/104/2 98/98/2 99/99/2
f 104/104/2 99/99/2 100/100/2
f 97/97/2 104/104/2 102/102/2
f 103/103/2 104/104/2 100/100/2
f 97/97/2 102/102/2 95/95/2
f 95/95/2 102/102/2 103/103/2
f 95/95/2 103/103/2 94/94/2
f 94/94/2 103/103/2 100/100/2
f 97/97/2 95/95/2 96/96/2
f 101/101/2 94/94/2 100/100/2
f 116/116/2 105/105/2 108/108/2
f 108/108/2 105/105/2 106/106/2
f 108/108/2 106/106/2 107/107/2
f 116/116/2 108/108/2 109/109/2
f 116/116/2 109/109/2 112/112/2
f 112/112/2 109/109/2 110/110/2
f 112/112/2 110/110/2 111/111/2
f 116/116/2 112/112/2 113/113/2
f 116/116/2 113/113/2 114/114/2
f 116/116/2 114/114/2 115/115/2
f 120/120/2 121/121/2 122/122/2
f 120/120/2 122/122/2 123/123/2
f 124/124/2 125/125/2 126/126/2
f 124/124/2 126/126/2 127/127/2
f 120/120/2 123/123/2 118/118/2
f 118/118/2 123/123/2 124/124/2
f 118/118/2 124/124/2 117/117/2
f 117/117/2 124/124/2 127/127/2
f 120/120/2 118/118/2 119/119/2
f 128/128/2 117/117/2 127/127/2
s 1
f 130/131/3 132/134/4 131/133/4 129/129/3
f 132/134/4 134/136/4 133/135/4 131/133/4
f 134/136/4 136/138/5 135/137/5 133/135/4
f 136/138/5 138/140/6 137/139/6 135/137/5
f 138/140/6 140/142/7 139/141/7 137/139/6
f 140/142/7 142/144/7 141/143/7 139/141/7
f 142/144/7 144/146/8 143/145/8 141/143/7
f 144/146/8 146/148/8 145/147/8 143/145/8
f 146/148/8 148/150/9 147/149/9 145/147/8
f 148/150/9 150/152/10 149/151/10 147/149/9
f 150/152/10 152/154/3 151/153/3 149/151/10
f 152/154/3 130/132/3 129/130/3 151/153/3
f 154/157/6 156/160/11 155/159/11 153/155/6
f 156/160/11 158/162/12 157/161/12 155/159/11
f 158/162/12 160/164/13 159/163/13 157/161/12
f 160/164/13 162/166/14 161/165/14 159/163/13
f 162/166/14 164/168/15 163/167/15 161/165/14
f 164/168/15 166/170/16 165/169/16 163/167/15
f 166/170/16 168/172/17 167/171/17 165/169/16
f 168/172/17 170/174/18 169/173/18 167/171/17
f 170/174/18 172/176/11 171/175/11 169/173/18
f 172/176/11 174/178/12 173/177/12 171/175/11
f 174/178/12 176/180/5 175/179/5 173/177/12
f 176/180/5 154/158/6 153/156/6 175/179/5
f 178/183/19 180/186/20 179/185/20 177/181/19
f 180/186/20 182/188/20 181/187/20 179/185/20
f 182/188/20 184/190/21 183/189/21 181/187/20
f 184/190/21 186/192/22 185/191/22 183/189/21
f 186/192/22 188/194/23 187/193/23 185/191/22
f 188/194/23 190/196/24 189/195/24 187/193/23
f 190/196/24 192/198/19 191/197/19 189/195/24
f 192/198/19 178/184/19 177/182/19 191/197/19
f 194/201/25 196/204/26 195/203/26 193/199/25
f 196/204/26 198/206/27 197/205/27 195/203/26
f 198/206/27 194/202/25 193/200/25 197/205/27
f 200/209/28 202/212/29 201/211/29 199/207/28
f 202/212/29 204/214/30 203/213/30 201/211/29
f 204/214/30 206/216/31 205/215/31 203/213/30
f 206/216/31 208/218/32 207/217/32 205/215/31
f 208/218/32 210/220/33 209/219/33 207/217/32
f 210/220/33 212/222/34 211/221/34 209/219/33
f 212/222/34 200/210/28 199/208/28 211/221/34
f 214/225/6 216/228/11 215/227/11 213/223/6
f 216/228/11 218/230/12 217/229/12 215/227/11
f 218/230/12 220/232/13 219/231/13 217/229/12
f 220/232/13 222/234/14 221/233/14 219/231/13
f 222/234/14 224/236/15 223/235/15 221/233/14
f 224/236/15 226/238/16 225/237/16 223/235/15
f 226/238/16 228/240/17 227/239/17 225/237/16
f 228/240/17 230/242/18 229/241/18 227/239/17
f 230/242/18 232/244/11 231/243/11 229/241/18
f 232/244/11 234/246/12 233/245/12 231/243/11
f 234/246/12 236/248/5 235/247/5 233/245/12
f 236/248/5 214/226/6 213/224/6 235/247/5
f 238/251/35 240/254/36 239/253/36 237/249/35
f 240/254/36 242/256/37 241/255/37 239/253/36
f 242/256/37 244/258/38 243/257/38 241/255/37
f 244/258/38 246/260/39 245/259/39 243/257/38
f 246/260/39 248/262/40 247/261/40 245/259/39
f 248/262/40 250/264/38 249/263/38 247/261/40
f 250/264/38 252/266/9 251/265/9 249/263/38
f 252/266/9 254/268/10 253/267/10 251/265/9
f 254/268/10 256/270/41 255/269/41 253/267/10
f 256/270/41 238/252/35 237/250/35 255/269/41
